<svg id="Layer_1" data-name="Layer 1" xmlns="http://www.w3.org/2000/svg" viewBox="0 0 506.84 89.13"><defs><style>.cls-1{fill:#231f20}</style></defs><path class="cls-1" d="M8 17.83C8 7.47 16.05 1.21 27 1.21c13 0 21.91 11.68 24.32 23.84h1.09L52.57.3 51.34.24a10.19 10.19 0 01-6 1.69C41.59 1.93 32.43 0 27.26 0 15.57 0 1.12 6.75 1.12 24.69c0 34.93 48.42 20 48.42 44.09 0 13.13-9.64 18.67-20.36 18.67-14.57 0-24.09-10.36-28.06-28.19H0v28.67h1.48a12.77 12.77 0 016.14-1.81c3.74 0 11.93 2.65 21.32 2.65 13.37 0 28.43-8 28.43-27.58C57.37 26.26 8 41.07 8 17.83zM143.77 2.65v-1.2h-28.19v1.2h1c9 0 12.28 4.1 12.28 23v31.08c0 22.16-10.72 30.23-27.1 30.23C84.39 87 82 75.64 82 57.94V7.11c0-4.22.48-4.46 1.2-4.46h9v-1.2H56.92v1.2h9c.72 0 1.2.24 1.2 4.46v48.78c0 23.61 7.23 33.24 32.52 33.24 18.31 0 30.84-7.95 30.84-32.4V25.66c0-18.91 3.25-23 12.28-23z"/><path class="cls-1" d="M177.76 87.57c-19.76 0-22.77-19-22.77-45 0-24.93 2.77-41.2 22.16-41.2 12.41 0 21.32 6.75 27.35 24.7h1.08l-.07-24.94h-2.1A9.28 9.28 0 01198 3c-3.61 0-11.44-3-20.6-3-20 0-39.4 14.57-39.4 44.69 0 30.71 20.23 44.2 40.23 44.2 10.36 0 15-3.61 19.87-3.61a10 10 0 015.55 1.72h1.86l.17-26.48-.94-.14c-2.89 15.02-11.09 27.19-26.98 27.19zM252.05 87.57c-19.75 0-22.76-19-22.76-45 0-24.93 2.77-41.2 22.16-41.2 12.4 0 21.32 6.75 27.34 24.7h1.08l-.07-24.99h-2.09A9.3 9.3 0 01272.29 3c-3.62 0-11.45-3-20.6-3-20 0-39.39 14.57-39.39 44.69 0 30.71 20.24 44.2 40.23 44.2 10.36 0 15.06-3.61 19.88-3.61A10.05 10.05 0 01278 87h1.85l.15-26.52-.94-.14C276.14 75.4 268 87.57 252.05 87.57zM327 2.65c16.74 0 20.35 6.5 26 21.92l1-.15v-23h-65.7v1.2h9c.72 0 1.2.24 1.2 4.46v74.46c0 4.22-.48 4.46-1.2 4.46h-9v1.21H354l-.15-26h-1.08C343.07 83.23 345 86 328.47 86c-13.85 0-15.05-.12-15.05-7V43.48h8.67c7.35.21 12.7.21 14.93 12.27h1.09V28.69H337c-.72 8.19-4 12.94-14.81 13.59h-8.79V8.91c.02-5.66 1.82-6.26 13.6-6.26zM370 17.83c0-10.36 8.07-16.62 19-16.62 13 0 21.91 11.68 24.31 23.84h1.09L414.56.3l-1.22-.06a10.25 10.25 0 01-6 1.69c-3.76 0-12.91-1.93-18.09-1.93-11.69 0-26.14 6.75-26.14 24.69 0 34.93 48.42 20 48.42 44.09 0 13.13-9.64 18.67-20.36 18.67-14.57 0-24.09-10.36-28.06-28.19H362v28.67h1.48a12.8 12.8 0 016.14-1.81c3.74 0 11.93 2.65 21.32 2.65 13.37 0 28.43-8 28.43-27.58C419.36 26.26 370 41.07 370 17.83zM435 17.83c0-10.36 8-16.62 19-16.62 13 0 21.91 11.68 24.32 23.84h1.09L479.56.3l-1.23-.06a10.19 10.19 0 01-6 1.69c-3.75 0-12.91-1.93-18.09-1.93-11.68 0-26.13 6.75-26.13 24.69 0 34.93 48.42 20 48.42 44.09 0 13.13-9.64 18.67-20.36 18.67-14.57 0-24.09-10.36-28.06-28.19H427v28.67h1.48a12.77 12.77 0 016.14-1.81c3.74 0 11.93 2.65 21.32 2.65 13.37 0 28.43-8 28.43-27.58C484.36 26.26 435 41.07 435 17.83zM499.75 0a7 7 0 00-7.14 7 7.12 7.12 0 0014.23 0 6.94 6.94 0 00-7.09-7zm0 12.46A5.37 5.37 0 01494.38 7a5.35 5.35 0 1110.69 0 5.3 5.3 0 01-5.28 5.48z"/><path class="cls-1" d="M501.35 7.16v-.09a1.76 1.76 0 001.44-1.6 1.91 1.91 0 00-.68-1.47 4.22 4.22 0 00-2.4-.51 14.59 14.59 0 00-2.66.21v6.93h1.6V7.79h.76c.89 0 1.31.34 1.44 1.1a5.61 5.61 0 00.55 1.69h1.73a5.21 5.21 0 01-.51-1.73 2 2 0 00-1.27-1.69zm-1.9-.51h-.76v-2a3.43 3.43 0 01.89-.09c1 0 1.48.42 1.48 1.06s-.72 1.03-1.61 1.03z"/></svg>