<svg width="135" height="40" viewBox="0 0 135 40" fill="none" xmlns="http://www.w3.org/2000/svg">
<g clip-path="url(#clip0_1450_5944)">
<path d="M124.249 0.00013H10.7566C10.3429 0.00013 9.9342 0.00013 9.5216 0.00213C9.17621 0.00413 8.83358 0.00994 8.48488 0.01483C7.72734 0.0227318 6.97157 0.0818063 6.22416 0.19154C5.4778 0.303663 4.75482 0.515046 4.07967 0.81854C3.40534 1.1246 2.7892 1.5223 2.25358 1.9972C1.71514 2.47077 1.26632 3.01815 0.924356 3.61829C0.581453 4.21724 0.343683 4.85907 0.219258 5.52161C0.0936495 6.18332 0.0260586 6.85265 0.0170916 7.52361C0.00662229 7.83021 0.00551669 8.13783 0 8.44447V31.5587C0.00551669 31.8692 0.00662229 32.17 0.0170916 32.4806C0.0260614 33.1516 0.0936522 33.8209 0.219258 34.4825C0.343339 35.1455 0.581124 35.7877 0.924356 36.3868C1.26616 36.985 1.71505 37.5302 2.25358 38.0011C2.78717 38.4781 3.40371 38.8761 4.07967 39.1798C4.75481 39.4841 5.47772 39.6968 6.22416 39.8106C6.9717 39.9195 7.72738 39.9786 8.48488 39.9874C8.83358 39.9942 9.17621 39.9981 9.5216 39.9981C9.93419 40.0001 10.343 40.0001 10.7566 40.0001H124.249C124.655 40.0001 125.067 40.0001 125.472 39.9981C125.816 39.9981 126.169 39.9942 126.512 39.9874C127.268 39.9791 128.023 39.92 128.769 39.8106C129.518 39.696 130.243 39.4834 130.921 39.1798C131.597 38.8759 132.213 38.478 132.746 38.0011C133.283 37.5284 133.733 36.9836 134.079 36.3868C134.42 35.7872 134.655 35.1451 134.777 34.4825C134.903 33.8208 134.973 33.1516 134.987 32.4806C134.991 32.17 134.991 31.8692 134.991 31.5587C135 31.1954 135 30.8341 135 30.4649V9.53626C135 9.17005 135 8.80677 134.991 8.44447C134.991 8.13783 134.991 7.83021 134.987 7.52357C134.973 6.85255 134.903 6.18337 134.777 5.52157C134.655 4.85941 134.419 4.21763 134.079 3.61825C133.383 2.41533 132.278 1.43616 130.921 0.81845C130.243 0.515697 129.518 0.30437 128.769 0.19145C128.023 0.0812328 127.269 0.0221378 126.512 0.01469C126.169 0.00981 125.816 0.00395 125.472 0.002C125.067 0 124.655 0 124.249 0V0.00013Z" fill="#A6A6A6"/>
<path d="M9.52756 39.125C9.18383 39.125 8.84841 39.1211 8.50738 39.1143C7.80091 39.1061 7.09608 39.0516 6.39869 38.9512C5.74841 38.8519 5.11847 38.6673 4.52963 38.4033C3.94619 38.1415 3.41405 37.7983 2.95359 37.3867C2.48647 36.98 2.09757 36.5082 1.8023 35.9902C1.50377 35.4688 1.29718 34.9099 1.18971 34.333C1.07365 33.7131 1.01085 33.0863 1.00187 32.458C0.994715 32.2471 0.985352 31.5449 0.985352 31.5449V8.44434C0.985352 8.44434 0.995325 7.75293 1.00192 7.5498C1.01053 6.92248 1.07296 6.29665 1.18867 5.67773C1.29634 5.09925 1.50309 4.53875 1.80178 4.01563C2.09596 3.49794 2.4827 3.02586 2.94702 2.61768C3.4108 2.20562 3.94465 1.8606 4.52908 1.59521C5.11656 1.33209 5.74532 1.14873 6.39428 1.05127C7.09396 0.949836 7.80123 0.894996 8.51015 0.88721L9.52811 0.875H125.467L126.497 0.8877C127.2 0.895099 127.901 0.94945 128.594 1.05029C129.25 1.14898 129.885 1.33362 130.479 1.59814C131.65 2.13299 132.603 2.97916 133.204 4.01807C133.497 4.53758 133.701 5.09351 133.807 5.66699C133.924 6.29099 133.99 6.92174 134.003 7.5542C134.007 7.8374 134.007 8.1416 134.007 8.44434C134.016 8.81934 134.016 9.17627 134.016 9.53613V30.4648C134.016 30.8281 134.016 31.1826 134.007 31.54C134.007 31.8652 134.007 32.1631 134.002 32.4697C133.989 33.0909 133.925 33.7104 133.809 34.3232C133.704 34.9043 133.499 35.4675 133.2 35.9932C132.903 36.5056 132.516 36.9733 132.054 37.3789C131.594 37.7927 131.061 38.1379 130.476 38.4014C129.883 38.6674 129.249 38.8527 128.594 38.9512C127.897 39.0522 127.192 39.1067 126.485 39.1143C126.155 39.1211 125.809 39.125 125.473 39.125L124.25 39.127L9.52756 39.125Z" fill="black"/>
<path d="M30.2355 21.1163C30.2473 20.243 30.4906 19.3868 30.9426 18.6273C31.3947 17.8678 32.0409 17.2297 32.8211 16.7723C32.3255 16.0973 31.6716 15.5418 30.9114 15.1499C30.1513 14.7581 29.3057 14.5406 28.442 14.5149C26.5996 14.3304 24.8134 15.5661 23.8745 15.5661C22.9175 15.5661 21.4719 14.5332 19.9153 14.5637C18.9084 14.5947 17.9272 14.8739 17.0671 15.3741C16.207 15.8742 15.4975 16.5783 15.0077 17.4177C12.8857 20.9209 14.4685 26.0694 16.5012 28.9012C17.5181 30.2878 18.7067 31.8367 20.2619 31.7817C21.7838 31.7215 22.3522 30.8564 24.1892 30.8564C26.0092 30.8564 26.5425 31.7817 28.1292 31.7468C29.7623 31.7215 30.7912 30.354 31.7725 28.9543C32.5032 27.9663 33.0655 26.8743 33.4385 25.7188C32.4897 25.3362 31.6801 24.6957 31.1105 23.8772C30.5409 23.0588 30.2366 22.0986 30.2355 21.1163V21.1163Z" fill="white"/>
<path d="M27.2379 12.652C28.1283 11.6327 28.5669 10.3227 28.4607 9C27.1004 9.13624 25.8438 9.75619 24.9414 10.7363C24.5002 11.2152 24.1622 11.7722 23.9469 12.3756C23.7316 12.9791 23.6431 13.617 23.6865 14.2531C24.3669 14.2598 25.0401 14.1192 25.6552 13.8418C26.2704 13.5645 26.8115 13.1577 27.2379 12.652Z" fill="white"/>
<path d="M53.3135 27.1397H48.5801L47.4434 30.4961H45.4385L49.9219 18.0781H52.0049L56.4883 30.4961H54.4492L53.3135 27.1397ZM49.0703 25.5908H52.8223L50.9727 20.1436H50.9209L49.0703 25.5908Z" fill="white"/>
<path d="M66.1709 25.9695C66.1709 28.7829 64.6651 30.5905 62.3926 30.5905C61.817 30.6207 61.2445 30.4881 60.7407 30.2079C60.2369 29.9278 59.8221 29.5114 59.544 29.0065H59.501V33.4909H57.6426V21.4421H59.4414V22.948H59.4756C59.7666 22.4455 60.1883 22.0313 60.6959 21.7495C61.2036 21.4676 61.7781 21.3287 62.3584 21.3474C64.6562 21.3474 66.1709 23.1638 66.1709 25.9695ZM64.2608 25.9695C64.2608 24.1365 63.3135 22.9314 61.8682 22.9314C60.4483 22.9314 59.4932 24.1618 59.4932 25.9695C59.4932 27.7937 60.4483 29.0154 61.8682 29.0154C63.3135 29.0154 64.2608 27.8191 64.2608 25.9695Z" fill="white"/>
<path d="M76.1358 25.9694C76.1358 28.7829 74.6299 30.5905 72.3575 30.5905C71.7818 30.6206 71.2093 30.488 70.7055 30.2079C70.2017 29.9278 69.787 29.5114 69.5088 29.0065H69.4658V33.4909H67.6074V21.4421H69.4062V22.948H69.4404C69.7314 22.4455 70.1531 22.0313 70.6607 21.7495C71.1684 21.4676 71.7429 21.3287 72.3232 21.3474C74.6211 21.3474 76.1358 23.1638 76.1358 25.9694ZM74.2256 25.9694C74.2256 24.1364 73.2783 22.9314 71.833 22.9314C70.4131 22.9314 69.458 24.1618 69.458 25.9694C69.458 27.7937 70.4131 29.0153 71.833 29.0153C73.2784 29.0153 74.2256 27.8191 74.2256 25.9694H74.2256Z" fill="white"/>
<path d="M82.7217 27.0362C82.8594 28.2676 84.0557 29.0762 85.6905 29.0762C87.2569 29.0762 88.3838 28.2676 88.3838 27.1572C88.3838 26.1934 87.7041 25.6162 86.0948 25.2207L84.4854 24.833C82.2051 24.2822 81.1465 23.2158 81.1465 21.4854C81.1465 19.3428 83.0137 17.8711 85.6651 17.8711C88.2891 17.8711 90.0879 19.3428 90.1485 21.4854H88.2725C88.1602 20.2461 87.1357 19.4981 85.6387 19.4981C84.1416 19.4981 83.1172 20.2549 83.1172 21.3565C83.1172 22.2344 83.7715 22.751 85.3721 23.1465L86.7402 23.4824C89.2881 24.0849 90.3467 25.1084 90.3467 26.9248C90.3467 29.248 88.4961 30.7031 85.5527 30.7031C82.7988 30.7031 80.9395 29.2822 80.8193 27.0361L82.7217 27.0362Z" fill="white"/>
<path d="M94.3574 19.2998V21.4424H96.0791V22.9141H94.3574V27.9053C94.3574 28.6807 94.7021 29.042 95.459 29.042C95.6634 29.0384 95.8674 29.0241 96.0703 28.999V30.4619C95.73 30.5255 95.3842 30.5543 95.0381 30.5478C93.2051 30.5478 92.4902 29.8593 92.4902 28.1035V22.9141H91.1738V21.4424H92.4902V19.2998H94.3574Z" fill="white"/>
<path d="M97.0762 25.9697C97.0762 23.1211 98.7539 21.3311 101.37 21.3311C103.995 21.3311 105.665 23.1211 105.665 25.9697C105.665 28.8262 104.004 30.6084 101.37 30.6084C98.7373 30.6084 97.0762 28.8262 97.0762 25.9697ZM103.771 25.9697C103.771 24.0156 102.876 22.8623 101.37 22.8623C99.8642 22.8623 98.9697 24.0244 98.9697 25.9697C98.9697 27.9316 99.8642 29.0762 101.37 29.0762C102.876 29.0762 103.771 27.9316 103.771 25.9697H103.771Z" fill="white"/>
<path d="M107.197 21.442H108.97V22.983H109.013C109.133 22.5017 109.415 22.0764 109.811 21.7785C110.208 21.4806 110.695 21.3284 111.19 21.3473C111.405 21.3465 111.618 21.3698 111.827 21.4166V23.1549C111.557 23.0723 111.275 23.0343 110.992 23.0426C110.722 23.0316 110.453 23.0792 110.203 23.1821C109.953 23.285 109.729 23.4408 109.545 23.6386C109.361 23.8365 109.222 24.0719 109.137 24.3286C109.053 24.5852 109.025 24.8571 109.056 25.1256V30.4957H107.197L107.197 21.442Z" fill="white"/>
<path d="M120.396 27.8369C120.146 29.4805 118.545 30.6084 116.497 30.6084C113.863 30.6084 112.229 28.8437 112.229 26.0127C112.229 23.1729 113.872 21.3311 116.419 21.3311C118.924 21.3311 120.499 23.0518 120.499 25.7969V26.4336H114.104V26.5459C114.075 26.8791 114.117 27.2148 114.227 27.5306C114.337 27.8464 114.513 28.1352 114.744 28.3778C114.974 28.6203 115.253 28.8111 115.563 28.9374C115.873 29.0637 116.206 29.1226 116.54 29.1103C116.979 29.1515 117.42 29.0498 117.797 28.8203C118.173 28.5909 118.466 28.246 118.631 27.8369L120.396 27.8369ZM114.113 25.1348H118.64C118.656 24.8352 118.611 24.5354 118.506 24.2541C118.402 23.9729 118.24 23.7164 118.031 23.5006C117.823 23.2849 117.572 23.1145 117.294 23.0003C117.017 22.8861 116.719 22.8305 116.419 22.8369C116.116 22.8351 115.816 22.8933 115.536 23.008C115.256 23.1227 115.002 23.2918 114.787 23.5054C114.573 23.7191 114.403 23.973 114.287 24.2527C114.172 24.5323 114.113 24.8321 114.113 25.1348V25.1348Z" fill="white"/>
<path d="M48.8369 8.73138C49.2265 8.70342 49.6175 8.76228 49.9816 8.90371C50.3457 9.04515 50.6739 9.26563 50.9425 9.54925C51.2111 9.83288 51.4134 10.1726 51.5348 10.5438C51.6562 10.9151 51.6937 11.3087 51.6445 11.6962C51.6445 13.6025 50.6143 14.6982 48.8369 14.6982H46.6816V8.73138H48.8369ZM47.6084 13.8544H48.7334C49.0118 13.871 49.2904 13.8254 49.5489 13.7208C49.8075 13.6161 50.0394 13.4552 50.2279 13.2496C50.4164 13.0441 50.5567 12.7991 50.6386 12.5324C50.7204 12.2658 50.7418 11.9843 50.7012 11.7084C50.7389 11.4335 50.7153 11.1538 50.6322 10.8891C50.5491 10.6244 50.4085 10.3814 50.2204 10.1775C50.0323 9.97358 49.8015 9.81378 49.5444 9.70954C49.2873 9.6053 49.0104 9.55922 48.7334 9.57459H47.6084V13.8544Z" fill="white"/>
<path d="M52.6917 12.4448C52.6634 12.1489 52.6972 11.8503 52.7911 11.5682C52.8849 11.2862 53.0367 11.0268 53.2366 10.8068C53.4365 10.5868 53.6803 10.4111 53.9521 10.2908C54.224 10.1705 54.518 10.1084 54.8152 10.1084C55.1125 10.1084 55.4065 10.1705 55.6783 10.2908C55.9502 10.4111 56.1939 10.5868 56.3938 10.8068C56.5938 11.0268 56.7455 11.2862 56.8394 11.5682C56.9332 11.8503 56.9671 12.1489 56.9388 12.4448C56.9676 12.741 56.9342 13.04 56.8406 13.3225C56.747 13.605 56.5953 13.8648 56.3953 14.0853C56.1953 14.3057 55.9514 14.4818 55.6793 14.6023C55.4072 14.7229 55.1128 14.7851 54.8152 14.7851C54.5176 14.7851 54.2233 14.7229 53.9511 14.6023C53.679 14.4818 53.4351 14.3057 53.2351 14.0853C53.0351 13.8648 52.8835 13.605 52.7899 13.3225C52.6963 13.04 52.6628 12.741 52.6917 12.4448V12.4448ZM56.0247 12.4448C56.0247 11.4687 55.5862 10.8979 54.8167 10.8979C54.0442 10.8979 53.6097 11.4687 53.6097 12.4448C53.6097 13.4287 54.0443 13.9951 54.8167 13.9951C55.5862 13.9951 56.0247 13.4248 56.0247 12.4448H56.0247Z" fill="white"/>
<path d="M62.584 14.6982H61.6621L60.7314 11.3818H60.6611L59.7344 14.6982H58.8213L57.5801 10.1953H58.4814L59.2881 13.6313H59.3545L60.2803 10.1953H61.1328L62.0586 13.6313H62.1289L62.9316 10.1953H63.8203L62.584 14.6982Z" fill="white"/>
<path d="M64.8643 10.1949H65.7197V10.9102H65.7861C65.8988 10.6533 66.0888 10.4379 66.3297 10.2941C66.5705 10.1503 66.8503 10.0852 67.1299 10.1079C67.349 10.0915 67.569 10.1245 67.7736 10.2046C67.9782 10.2847 68.1621 10.4098 68.3118 10.5707C68.4615 10.7315 68.5731 10.924 68.6383 11.1338C68.7035 11.3436 68.7206 11.5654 68.6885 11.7827V14.6977H67.7998V12.0059C67.7998 11.2823 67.4854 10.9224 66.8281 10.9224C66.6794 10.9155 66.5309 10.9408 66.3928 10.9966C66.2548 11.0525 66.1304 11.1375 66.0283 11.2459C65.9262 11.3543 65.8487 11.4834 65.8011 11.6246C65.7536 11.7657 65.7372 11.9154 65.7529 12.0635V14.6978H64.8643L64.8643 10.1949Z" fill="white"/>
<path d="M70.1045 8.4375H70.9932V14.6982H70.1045V8.4375Z" fill="white"/>
<path d="M72.2288 12.4449C72.2005 12.1489 72.2344 11.8503 72.3282 11.5683C72.4221 11.2862 72.5739 11.0268 72.7738 10.8068C72.9738 10.5869 73.2175 10.4111 73.4894 10.2908C73.7613 10.1705 74.0553 10.1084 74.3526 10.1084C74.6498 10.1084 74.9438 10.1705 75.2157 10.2908C75.4876 10.4111 75.7313 10.5869 75.9313 10.8068C76.1312 11.0268 76.283 11.2862 76.3769 11.5683C76.4707 11.8503 76.5046 12.1489 76.4763 12.4449C76.5051 12.7411 76.4717 13.0401 76.378 13.3226C76.2844 13.6051 76.1327 13.8649 75.9327 14.0853C75.7327 14.3058 75.4888 14.4819 75.2167 14.6024C74.9445 14.7229 74.6502 14.7852 74.3526 14.7852C74.0549 14.7852 73.7606 14.7229 73.4884 14.6024C73.2163 14.4819 72.9724 14.3058 72.7724 14.0853C72.5724 13.8649 72.4207 13.6051 72.3271 13.3226C72.2334 13.0401 72.2 12.7411 72.2288 12.4449V12.4449ZM75.5618 12.4449C75.5618 11.4688 75.1233 10.898 74.3538 10.898C73.5813 10.898 73.1468 11.4688 73.1468 12.4449C73.1468 13.4288 73.5813 13.9952 74.3538 13.9952C75.1233 13.9952 75.5618 13.4248 75.5618 12.4449H75.5618Z" fill="white"/>
<path d="M77.4121 13.4248C77.4121 12.6142 78.0156 12.147 79.0869 12.0806L80.3066 12.0102V11.6216C80.3066 11.146 79.9922 10.8774 79.3848 10.8774C78.8887 10.8774 78.5449 11.0596 78.4463 11.3779H77.5859C77.6768 10.6045 78.4043 10.1084 79.4258 10.1084C80.5547 10.1084 81.1914 10.6704 81.1914 11.6216V14.6982H80.3359V14.0654H80.2656C80.1229 14.2924 79.9225 14.4775 79.6849 14.6017C79.4473 14.7259 79.1809 14.7848 78.9131 14.7724C78.7241 14.7921 78.533 14.7719 78.3522 14.7132C78.1715 14.6545 78.005 14.5586 77.8636 14.4316C77.7222 14.3047 77.6089 14.1495 77.5312 13.9761C77.4534 13.8026 77.4129 13.6149 77.4121 13.4248V13.4248ZM80.3066 13.04V12.6636L79.207 12.7339C78.5869 12.7754 78.3057 12.9863 78.3057 13.3833C78.3057 13.7886 78.6572 14.0244 79.1407 14.0244C79.2823 14.0387 79.4254 14.0244 79.5614 13.9823C79.6974 13.9403 79.8235 13.8712 79.9323 13.7794C80.0411 13.6876 80.1303 13.5748 80.1946 13.4477C80.2589 13.3207 80.297 13.1821 80.3066 13.04V13.04Z" fill="white"/>
<path d="M82.3584 12.4448C82.3584 11.022 83.0898 10.1206 84.2275 10.1206C84.509 10.1077 84.7883 10.1751 85.0328 10.315C85.2773 10.4548 85.477 10.6615 85.6084 10.9106H85.6748V8.4375H86.5635V14.6982H85.7119V13.9868H85.6416C85.5 14.2343 85.2934 14.4383 85.0441 14.5768C84.7949 14.7153 84.5125 14.783 84.2275 14.7724C83.082 14.7725 82.3584 13.8711 82.3584 12.4448ZM83.2764 12.4448C83.2764 13.3999 83.7266 13.9746 84.4795 13.9746C85.2285 13.9746 85.6914 13.3916 85.6914 12.4487C85.6914 11.5103 85.2237 10.919 84.4795 10.919C83.7315 10.919 83.2764 11.4976 83.2764 12.4448H83.2764Z" fill="white"/>
<path d="M90.2405 12.4448C90.2122 12.1489 90.2461 11.8503 90.3399 11.5682C90.4337 11.2862 90.5855 11.0268 90.7854 10.8068C90.9854 10.5868 91.2291 10.4111 91.5009 10.2908C91.7728 10.1705 92.0668 10.1084 92.364 10.1084C92.6613 10.1084 92.9553 10.1705 93.2272 10.2908C93.499 10.4111 93.7427 10.5868 93.9427 10.8068C94.1426 11.0268 94.2944 11.2862 94.3882 11.5682C94.482 11.8503 94.5159 12.1489 94.4876 12.4448C94.5164 12.741 94.483 13.04 94.3894 13.3225C94.2958 13.605 94.1441 13.8648 93.9441 14.0853C93.7441 14.3057 93.5002 14.4818 93.2281 14.6023C92.956 14.7229 92.6617 14.7851 92.364 14.7851C92.0664 14.7851 91.7721 14.7229 91.5 14.6023C91.2278 14.4818 90.9839 14.3057 90.784 14.0853C90.584 13.8648 90.4323 13.605 90.3387 13.3225C90.2451 13.04 90.2117 12.741 90.2405 12.4448V12.4448ZM93.5735 12.4448C93.5735 11.4687 93.135 10.8979 92.3655 10.8979C91.5931 10.8979 91.1585 11.4687 91.1585 12.4448C91.1585 13.4287 91.5931 13.9951 92.3655 13.9951C93.135 13.9951 93.5735 13.4248 93.5735 12.4448Z" fill="white"/>
<path d="M95.6797 10.1949H96.5352V10.9102H96.6016C96.7142 10.6533 96.9042 10.4379 97.1451 10.2941C97.386 10.1503 97.6657 10.0852 97.9453 10.1079C98.1644 10.0915 98.3844 10.1245 98.589 10.2046C98.7936 10.2847 98.9776 10.4098 99.1273 10.5707C99.2769 10.7315 99.3885 10.924 99.4537 11.1338C99.5189 11.3436 99.5361 11.5654 99.5039 11.7827V14.6977H98.6152V12.0059C98.6152 11.2823 98.3008 10.9224 97.6436 10.9224C97.4948 10.9155 97.3463 10.9408 97.2082 10.9966C97.0702 11.0525 96.9458 11.1375 96.8437 11.2459C96.7416 11.3543 96.6641 11.4834 96.6166 11.6246C96.569 11.7657 96.5526 11.9154 96.5684 12.0635V14.6978H95.6797V10.1949Z" fill="white"/>
<path d="M104.526 9.07422V10.2158H105.502V10.9644H104.526V13.2798C104.526 13.7515 104.721 13.958 105.163 13.958C105.276 13.9576 105.389 13.9508 105.502 13.9375V14.6777C105.342 14.7063 105.181 14.7215 105.019 14.7231C104.03 14.7231 103.637 14.3755 103.637 13.5073V10.9643H102.922V10.2158H103.637V9.07422H104.526Z" fill="white"/>
<path d="M106.715 8.4375H107.596V10.919H107.666C107.784 10.6596 107.979 10.443 108.225 10.2987C108.471 10.1543 108.755 10.0893 109.039 10.1123C109.257 10.1004 109.475 10.1368 109.677 10.2189C109.879 10.3009 110.061 10.4266 110.209 10.5869C110.357 10.7473 110.468 10.9383 110.534 11.1465C110.6 11.3546 110.619 11.5747 110.59 11.791V14.6982H109.7V12.0103C109.7 11.291 109.365 10.9268 108.737 10.9268C108.585 10.9142 108.431 10.9352 108.287 10.9883C108.143 11.0413 108.013 11.1252 107.905 11.2339C107.797 11.3426 107.714 11.4737 107.662 11.6178C107.61 11.7619 107.59 11.9157 107.604 12.0683V14.6982H106.715L106.715 8.4375Z" fill="white"/>
<path d="M115.772 13.4825C115.651 13.894 115.39 14.25 115.033 14.4882C114.676 14.7263 114.247 14.8315 113.821 14.7852C113.524 14.7931 113.229 14.7362 112.957 14.6187C112.684 14.5012 112.441 14.3258 112.243 14.1046C112.045 13.8835 111.898 13.6219 111.811 13.3381C111.724 13.0543 111.7 12.755 111.741 12.461C111.701 12.1661 111.726 11.8662 111.812 11.5815C111.899 11.2969 112.045 11.0341 112.242 10.811C112.439 10.5879 112.682 10.4098 112.953 10.2886C113.225 10.1674 113.52 10.1059 113.817 10.1085C115.07 10.1085 115.826 10.9645 115.826 12.3785V12.6886H112.646V12.7384C112.632 12.9036 112.653 13.0699 112.707 13.2267C112.761 13.3834 112.848 13.5271 112.96 13.6486C113.073 13.7701 113.21 13.8666 113.363 13.932C113.515 13.9974 113.68 14.0302 113.845 14.0284C114.058 14.0539 114.273 14.0156 114.464 13.9184C114.655 13.8212 114.812 13.6694 114.917 13.4825L115.772 13.4825ZM112.646 12.0313H114.921C114.932 11.8802 114.911 11.7284 114.86 11.5857C114.809 11.443 114.729 11.3125 114.625 11.2026C114.52 11.0928 114.394 11.006 114.254 10.9478C114.114 10.8896 113.964 10.8614 113.812 10.8648C113.658 10.8629 113.506 10.8918 113.364 10.9497C113.221 11.0076 113.092 11.0935 112.983 11.2022C112.875 11.3109 112.789 11.4403 112.731 11.5827C112.673 11.7251 112.644 11.8776 112.646 12.0313H112.646Z" fill="white"/>
<g filter="url(#filter0_d_1450_5944)">
<path d="M134 33V15.4658L96.2667 1H50L134 33Z" fill="url(#paint0_linear_1450_5944)"/>
</g>
<g filter="url(#filter1_d_1450_5944)">
<path d="M86.8733 9.24577C86.4172 9.0648 86.0878 8.8394 85.885 8.56958C85.6892 8.29678 85.5957 7.99002 85.6047 7.6493C85.6156 7.30363 85.7017 6.92754 85.863 6.52104L86.7246 4.34975C86.8899 3.93333 87.0861 3.59805 87.3131 3.34389C87.5422 3.08477 87.8205 2.92554 88.1482 2.86621C88.4808 2.80885 88.8752 2.87065 89.3312 3.05163C89.7774 3.22867 90.0949 3.44073 90.2837 3.68781C90.4795 3.93189 90.5773 4.20596 90.5772 4.51C90.577 4.81405 90.5091 5.1371 90.3733 5.47916L90.1668 5.99967L88.8655 5.4833L89.1045 4.88099C89.1517 4.76201 89.1895 4.64504 89.2179 4.53008C89.2513 4.41709 89.252 4.31408 89.22 4.22108C89.1901 4.12311 89.1032 4.0456 88.9594 3.98856C88.8206 3.93348 88.7018 3.92935 88.6029 3.97617C88.5089 4.02495 88.4294 4.10242 88.3643 4.20857C88.3062 4.31173 88.2525 4.42528 88.2033 4.54921L87.0791 7.3823C87.026 7.51615 86.9867 7.64402 86.9613 7.7659C86.9428 7.8848 86.952 7.99174 86.9889 8.08671C87.0328 8.1787 87.1191 8.25026 87.248 8.30141C87.3868 8.35649 87.4997 8.36113 87.5868 8.31533C87.6758 8.26458 87.7503 8.18514 87.8104 8.07703C87.8706 7.96891 87.9242 7.85536 87.9714 7.73639L88.2222 7.10433L89.5235 7.62071L89.317 8.14122C89.1812 8.48328 89.0072 8.76998 88.7949 9.00132C88.5896 9.22967 88.329 9.373 88.0132 9.43131C87.7044 9.48663 87.3244 9.42478 86.8733 9.24577ZM91.0633 10.9084C90.6122 10.7294 90.2867 10.5085 90.0869 10.2456C89.8871 9.98268 89.7892 9.6799 89.7932 9.33721C89.7973 8.99453 89.8809 8.61746 90.0442 8.20601L90.9323 5.96779C91.0976 5.55137 91.2952 5.21955 91.5253 4.97231C91.7554 4.72508 92.0323 4.57675 92.356 4.52733C92.6817 4.47296 93.0701 4.53527 93.5212 4.71428C93.9773 4.89526 94.3052 5.11719 94.505 5.38009C94.7117 5.63999 94.814 5.9388 94.812 6.27653C94.81 6.61425 94.7263 6.99132 94.5611 7.40773L93.6729 9.64595C93.5096 10.0574 93.312 10.3892 93.0799 10.6414C92.8479 10.8936 92.5665 11.0459 92.2359 11.0983C91.9102 11.1527 91.5193 11.0894 91.0633 10.9084ZM91.438 9.96406C91.5768 10.0191 91.6922 10.0248 91.7842 9.98094C91.8762 9.93711 91.9537 9.8646 92.0168 9.76341C92.0799 9.66221 92.1341 9.55461 92.1794 9.44059L93.3301 6.54057C93.3773 6.4216 93.4117 6.30612 93.4332 6.19415C93.4566 6.07722 93.4499 5.97127 93.413 5.8763C93.3761 5.78132 93.2882 5.70629 93.1494 5.65121C93.0205 5.60007 92.9101 5.59641 92.8181 5.64024C92.7261 5.68407 92.6486 5.75658 92.5855 5.85777C92.5243 5.95401 92.4702 6.06161 92.4229 6.18059L91.2722 9.08061C91.2269 9.19462 91.1901 9.30911 91.1617 9.42408C91.1382 9.541 91.1425 9.64597 91.1744 9.73898C91.2113 9.83396 91.2992 9.90898 91.438 9.96406ZM93.7082 11.8547L96.2024 5.8729L97.6301 6.43944L96.9021 10.2044L99.0058 6.98532L100.381 7.5312L98.0954 13.5956L97.1511 13.2209L98.63 9.16865L96.3406 12.8993L95.5003 12.5658L96.3589 8.23304L94.6675 12.2354L93.7082 11.8547ZM98.9736 13.9441L101.364 7.921L102.695 8.44917L100.305 14.4723L98.9736 13.9441ZM101.203 14.8287L103.593 8.80556L104.53 9.17735L104.613 12.5672L105.764 9.66717L106.865 10.1039L104.475 16.127L103.575 15.77L103.58 12.157L102.34 15.2801L101.203 14.8287ZM106.905 17.1945C106.488 17.0293 106.193 16.8117 106.019 16.5418C105.85 16.2739 105.775 15.9631 105.795 15.6095C105.822 15.2529 105.917 14.8689 106.08 14.4574L106.883 12.4348C107.052 12.0085 107.253 11.6608 107.486 11.3918C107.719 11.1227 108 10.9561 108.33 10.8918C108.666 10.8245 109.063 10.8814 109.519 11.0623C109.965 11.2394 110.285 11.4524 110.479 11.7015C110.677 11.9525 110.779 12.231 110.784 12.537C110.789 12.843 110.721 13.172 110.582 13.524L110.428 13.9106L109.127 13.3943L109.322 12.9035C109.373 12.7746 109.41 12.6517 109.434 12.5348C109.462 12.4198 109.457 12.3173 109.418 12.2273C109.386 12.1343 109.301 12.0603 109.162 12.0052C109.018 11.9481 108.898 11.9465 108.802 12.0002C108.708 12.049 108.629 12.1265 108.564 12.2326C108.504 12.3407 108.449 12.4568 108.4 12.5807L107.293 15.3692C107.24 15.503 107.202 15.6344 107.18 15.7632C107.164 15.889 107.177 16.0028 107.217 16.1047C107.263 16.2037 107.354 16.2797 107.488 16.3328C107.626 16.3879 107.748 16.393 107.852 16.3481C107.955 16.3033 108.046 16.2273 108.123 16.1201C108.2 16.0129 108.265 15.8924 108.318 15.7586L108.598 15.0521L108.055 14.8367L108.365 14.056L110.105 14.7464L108.866 17.8695L107.988 17.5213L108.112 16.9936C107.966 17.1307 107.793 17.2258 107.594 17.2788C107.397 17.3269 107.167 17.2988 106.905 17.1945ZM113.165 19.6787C112.788 19.5292 112.5 19.3374 112.3 19.1032C112.1 18.869 111.991 18.5876 111.972 18.2588C111.956 17.9251 112.028 17.5322 112.191 17.0801L113.396 17.3606C113.299 17.6203 113.238 17.8374 113.215 18.0118C113.197 18.1881 113.211 18.3257 113.258 18.4246C113.31 18.5255 113.39 18.5976 113.499 18.6409C113.638 18.6959 113.746 18.6842 113.823 18.6058C113.905 18.5293 113.967 18.439 114.008 18.3349C114.106 18.087 114.129 17.8552 114.077 17.6395C114.027 17.4188 113.935 17.1813 113.801 16.9272L113.46 16.267C113.309 15.9832 113.202 15.6884 113.14 15.3825C113.084 15.0737 113.128 14.7383 113.272 14.3764C113.475 13.8658 113.78 13.5367 114.189 13.389C114.6 13.2363 115.065 13.2632 115.586 13.4698C115.908 13.5977 116.144 13.7545 116.294 13.9403C116.449 14.128 116.541 14.3308 116.569 14.5486C116.604 14.7634 116.6 14.9768 116.556 15.1889C116.519 15.398 116.467 15.5927 116.402 15.7732L115.2 15.46C115.266 15.2796 115.315 15.121 115.346 14.9843C115.384 14.8445 115.39 14.7291 115.363 14.6381C115.338 14.5421 115.268 14.4714 115.154 14.4262C115.03 14.377 114.918 14.3927 114.817 14.4732C114.721 14.5556 114.653 14.6489 114.612 14.753C114.523 14.9761 114.502 15.1802 114.549 15.3653C114.603 15.5473 114.687 15.7496 114.799 15.9722L115.123 16.6086C115.297 16.9359 115.418 17.2763 115.484 17.6297C115.555 17.985 115.508 18.3709 115.343 18.7873C115.231 19.0699 115.064 19.3021 114.843 19.4839C114.624 19.6608 114.368 19.769 114.077 19.8084C113.791 19.8498 113.487 19.8066 113.165 19.6787ZM117.111 21.2446C116.66 21.0655 116.334 20.8446 116.135 20.5817C115.935 20.3188 115.837 20.016 115.841 19.6733C115.845 19.3307 115.928 18.9536 116.092 18.5421L116.98 16.3039C117.145 15.8875 117.343 15.5557 117.573 15.3084C117.803 15.0612 118.08 14.9129 118.404 14.8635C118.729 14.8091 119.118 14.8714 119.569 15.0504C120.025 15.2314 120.353 15.4533 120.553 15.7162C120.759 15.9761 120.862 16.2749 120.86 16.6127C120.858 16.9504 120.774 17.3274 120.609 17.7439L119.721 19.9821C119.557 20.3935 119.36 20.7254 119.128 20.9776C118.895 21.2297 118.614 21.382 118.284 21.4345C117.958 21.4888 117.567 21.4255 117.111 21.2446ZM117.486 20.3002C117.624 20.3553 117.74 20.3609 117.832 20.3171C117.924 20.2732 118.001 20.2007 118.064 20.0995C118.128 19.9983 118.182 19.8907 118.227 19.7767L119.378 16.8767C119.425 16.7577 119.459 16.6423 119.481 16.5303C119.504 16.4133 119.497 16.3074 119.461 16.2124C119.424 16.1174 119.336 16.0424 119.197 15.9873C119.068 15.9362 118.958 15.9325 118.866 15.9764C118.774 16.0202 118.696 16.0927 118.633 16.1939C118.572 16.2901 118.518 16.3977 118.471 16.5167L117.32 19.4167C117.275 19.5307 117.238 19.6452 117.209 19.7602C117.186 19.8771 117.19 19.9821 117.222 20.0751C117.259 20.1701 117.347 20.2451 117.486 20.3002ZM121.468 22.9735C121.017 22.7945 120.691 22.5735 120.492 22.3106C120.292 22.0477 120.194 21.745 120.198 21.4023C120.202 21.0596 120.285 20.6825 120.449 20.2711L121.337 18.0328C121.502 17.6164 121.7 17.2846 121.93 17.0374C122.16 16.7901 122.437 16.6418 122.761 16.5924C123.086 16.538 123.475 16.6003 123.926 16.7793C124.382 16.9603 124.71 17.1823 124.91 17.4451C125.116 17.705 125.219 18.0039 125.217 18.3416C125.215 18.6793 125.131 19.0564 124.966 19.4728L124.078 21.711C123.914 22.1225 123.717 22.4543 123.485 22.7065C123.252 22.9587 122.971 23.111 122.641 23.1634C122.315 23.2178 121.924 23.1545 121.468 22.9735ZM121.843 22.0291C121.981 22.0842 122.097 22.0898 122.189 22.046C122.281 22.0022 122.358 21.9297 122.421 21.8285C122.485 21.7273 122.539 21.6197 122.584 21.5056L123.735 18.6056C123.782 18.4867 123.816 18.3712 123.838 18.2592C123.861 18.1423 123.854 18.0363 123.818 17.9414C123.781 17.8464 123.693 17.7714 123.554 17.7163C123.425 17.6651 123.315 17.6615 123.223 17.7053C123.131 17.7491 123.053 17.8216 122.99 17.9228C122.929 18.0191 122.875 18.1267 122.828 18.2456L121.677 21.1457C121.632 21.2597 121.595 21.3742 121.566 21.4891C121.543 21.6061 121.547 21.711 121.579 21.804C121.616 21.899 121.704 21.974 121.843 22.0291ZM124.135 23.9286L126.525 17.9055L127.462 18.2773L127.546 21.6671L128.697 18.7671L129.797 19.2038L127.407 25.2269L126.507 24.8699L126.512 21.257L125.273 24.3801L124.135 23.9286Z" fill="white"/>
</g>
</g>
<defs>
<filter id="filter0_d_1450_5944" x="14" y="-13" width="144" height="92" filterUnits="userSpaceOnUse" color-interpolation-filters="sRGB">
<feFlood flood-opacity="0" result="BackgroundImageFix"/>
<feColorMatrix in="SourceAlpha" type="matrix" values="0 0 0 0 0 0 0 0 0 0 0 0 0 0 0 0 0 0 127 0" result="hardAlpha"/>
<feOffset dx="-6" dy="16"/>
<feGaussianBlur stdDeviation="15"/>
<feComposite in2="hardAlpha" operator="out"/>
<feColorMatrix type="matrix" values="0 0 0 0 0 0 0 0 0 0 0 0 0 0 0 0 0 0 0.69 0"/>
<feBlend mode="normal" in2="BackgroundImageFix" result="effect1_dropShadow_1450_5944"/>
<feBlend mode="normal" in="SourceGraphic" in2="effect1_dropShadow_1450_5944" result="shape"/>
</filter>
<filter id="filter1_d_1450_5944" x="82.0664" y="2.33496" width="50.7627" height="28.9814" filterUnits="userSpaceOnUse" color-interpolation-filters="sRGB">
<feFlood flood-opacity="0" result="BackgroundImageFix"/>
<feColorMatrix in="SourceAlpha" type="matrix" values="0 0 0 0 0 0 0 0 0 0 0 0 0 0 0 0 0 0 127 0" result="hardAlpha"/>
<feOffset dy="3"/>
<feGaussianBlur stdDeviation="1.5"/>
<feComposite in2="hardAlpha" operator="out"/>
<feColorMatrix type="matrix" values="0 0 0 0 0 0 0 0 0 0 0 0 0 0 0 0 0 0 0.25 0"/>
<feBlend mode="normal" in2="BackgroundImageFix" result="effect1_dropShadow_1450_5944"/>
<feBlend mode="normal" in="SourceGraphic" in2="effect1_dropShadow_1450_5944" result="shape"/>
</filter>
<linearGradient id="paint0_linear_1450_5944" x1="110.6" y1="23.6484" x2="118.153" y2="6.59539" gradientUnits="userSpaceOnUse">
<stop stop-color="#5F5F5F"/>
<stop offset="1" stop-color="#404040"/>
</linearGradient>
<clipPath id="clip0_1450_5944">
<rect width="135" height="40" fill="white"/>
</clipPath>
</defs>
</svg>
