<svg width="135" height="40" viewBox="0 0 135 40" fill="none" xmlns="http://www.w3.org/2000/svg">
<path d="M130 40H5C2.25 40 0 37.75 0 35V5C0 2.25 2.25 0 5 0H130C132.75 0 135 2.25 135 5V35C135 37.75 132.75 40 130 40Z" fill="black"/>
<path d="M130 0.8C132.32 0.8 134.2 2.68 134.2 5V35C134.2 37.32 132.32 39.2 130 39.2H5C2.68 39.2 0.8 37.32 0.8 35V5C0.8 2.68 2.68 0.8 5 0.8H130ZM130 0H5C2.25 0 0 2.25 0 5V35C0 37.75 2.25 40 5 40H130C132.75 40 135 37.75 135 35V5C135 2.25 132.75 0 130 0Z" fill="#A6A6A6"/>
<path d="M47.4196 10.2401C47.4196 11.0801 47.1696 11.7501 46.6696 12.2401C46.1096 12.8301 45.3696 13.1301 44.4696 13.1301C43.5996 13.1301 42.8696 12.8301 42.2596 12.2301C41.6496 11.6301 41.3496 10.8801 41.3496 10.0001C41.3496 9.11012 41.6496 8.37012 42.2596 7.77012C42.8696 7.17012 43.5996 6.87012 44.4696 6.87012C44.8996 6.87012 45.3096 6.95012 45.6996 7.12012C46.0896 7.29012 46.3996 7.51012 46.6396 7.79012L46.1096 8.32012C45.7096 7.85012 45.1696 7.61012 44.4696 7.61012C43.8396 7.61012 43.2896 7.83012 42.8296 8.28012C42.3696 8.72012 42.1396 9.30012 42.1396 10.0101C42.1396 10.7201 42.3696 11.3001 42.8296 11.7401C43.2896 12.1801 43.8396 12.4101 44.4696 12.4101C45.1396 12.4101 45.6996 12.1901 46.1496 11.7401C46.4396 11.4501 46.6096 11.0401 46.6496 10.5201H44.4696V9.79012H47.3796C47.3996 9.95012 47.4196 10.1001 47.4196 10.2401Z" fill="white" stroke="white" stroke-width="0.2" stroke-miterlimit="10"/>
<path d="M52.0293 7.74H49.2993V9.64H51.7593V10.36H49.2993V12.26H52.0293V13H48.5293V7H52.0293V7.74Z" fill="white" stroke="white" stroke-width="0.2" stroke-miterlimit="10"/>
<path d="M55.2801 13H54.5101V7.74H52.8301V7H56.9501V7.74H55.2701V13H55.2801Z" fill="white" stroke="white" stroke-width="0.2" stroke-miterlimit="10"/>
<path d="M59.9395 13V7H60.7095V13H59.9395Z" fill="white" stroke="white" stroke-width="0.2" stroke-miterlimit="10"/>
<path d="M64.1297 13H63.3597V7.74H61.6797V7H65.7997V7.74H64.1197V13H64.1297Z" fill="white" stroke="white" stroke-width="0.2" stroke-miterlimit="10"/>
<path d="M73.6101 12.2201C73.0201 12.8301 72.2901 13.1301 71.4101 13.1301C70.5301 13.1301 69.8001 12.8301 69.2101 12.2201C68.6201 11.6101 68.3301 10.8701 68.3301 10.0001C68.3301 9.13012 68.6201 8.38012 69.2101 7.78012C69.8001 7.17012 70.5301 6.87012 71.4101 6.87012C72.2801 6.87012 73.0101 7.17012 73.6101 7.78012C74.2001 8.39012 74.5001 9.13012 74.5001 10.0001C74.4901 10.8801 74.2001 11.6201 73.6101 12.2201ZM69.7801 11.7201C70.2201 12.1701 70.7701 12.3901 71.4101 12.3901C72.0501 12.3901 72.6001 12.1701 73.0401 11.7201C73.4801 11.2701 73.7101 10.7001 73.7101 10.0001C73.7101 9.30012 73.4901 8.73012 73.0401 8.28012C72.6001 7.83012 72.0501 7.60012 71.4101 7.60012C70.7701 7.60012 70.2201 7.82012 69.7801 8.27012C69.3401 8.73012 69.1101 9.30012 69.1101 10.0001C69.1101 10.7001 69.3401 11.2701 69.7801 11.7201Z" fill="white" stroke="white" stroke-width="0.2" stroke-miterlimit="10"/>
<path d="M75.5801 13V7H76.5201L79.4401 11.67H79.4701L79.4401 10.51V7H80.2101V13H79.4101L76.3601 8.11H76.3301L76.3601 9.27V13H75.5801Z" fill="white" stroke="white" stroke-width="0.2" stroke-miterlimit="10"/>
<path d="M66.2524 22.4157C64.0626 22.4157 62.2735 24.0975 62.2735 26.4087C62.2735 28.7105 64.0626 30.4016 66.2524 30.4016C68.4422 30.4016 70.2313 28.7105 70.2313 26.4087C70.2313 24.0975 68.4422 22.4157 66.2524 22.4157ZM66.2524 28.8326C65.0504 28.8326 64.016 27.8368 64.016 26.4087C64.016 24.9712 65.0504 23.9847 66.2524 23.9847C67.4545 23.9847 68.4888 24.9712 68.4888 26.4087C68.4888 27.8368 67.4452 28.8326 66.2524 28.8326ZM57.5678 22.4157C55.378 22.4157 53.5889 24.0975 53.5889 26.4087C53.5889 28.7105 55.378 30.4016 57.5678 30.4016C59.7576 30.4016 61.5467 28.7105 61.5467 26.4087C61.5467 24.0975 59.7576 22.4157 57.5678 22.4157ZM57.5678 28.8326C56.3658 28.8326 55.3314 27.8368 55.3314 26.4087C55.3314 24.9712 56.3658 23.9847 57.5678 23.9847C58.7699 23.9847 59.8042 24.9712 59.8042 26.4087C59.8042 27.8368 58.7699 28.8326 57.5678 28.8326ZM47.2432 23.6465V25.3376H51.2687C51.1476 26.2866 50.8307 26.9912 50.3555 27.4703C49.7685 28.0622 48.8553 28.7105 47.2525 28.7105C44.7739 28.7105 42.8357 26.6999 42.8357 24.2008C42.8357 21.7017 44.7739 19.6911 47.2525 19.6911C48.585 19.6911 49.5635 20.2173 50.281 20.9031L51.4644 19.7099C50.458 18.7422 49.1255 18 47.2432 18C43.8514 18 41 20.781 41 24.2102C41 27.6301 43.8514 30.4204 47.2432 30.4204C49.0789 30.4204 50.458 29.8191 51.5389 28.6823C52.6478 27.5643 52.9926 25.9859 52.9926 24.7176C52.9926 24.323 52.9646 23.9565 52.8994 23.6559H47.2432V23.6465ZM89.4641 24.9618C89.138 24.0693 88.1316 22.4157 86.0723 22.4157C84.0316 22.4157 82.3357 24.0317 82.3357 26.4087C82.3357 28.6447 84.013 30.4016 86.268 30.4016C88.085 30.4016 89.138 29.2836 89.5666 28.6353L88.2155 27.724C87.7682 28.3911 87.1532 28.8326 86.268 28.8326C85.3828 28.8326 84.7491 28.4193 84.3484 27.6207L89.6505 25.4128L89.4641 24.9618ZM84.0596 26.2959C84.013 24.7551 85.243 23.9659 86.1282 23.9659C86.8178 23.9659 87.4048 24.3136 87.6005 24.8115L84.0596 26.2959ZM79.7545 30.1668H81.4971V18.4228H79.7545V30.1668ZM76.9032 23.3083H76.8379C76.4466 22.8385 75.7011 22.4157 74.7507 22.4157C72.7659 22.4157 70.9488 24.1726 70.9488 26.4275C70.9488 28.6635 72.7659 30.411 74.7507 30.411C75.6918 30.411 76.4466 29.9883 76.8379 29.4997H76.8938V30.0728C76.8938 31.6042 76.0832 32.4216 74.7786 32.4216C73.7163 32.4216 73.0547 31.6512 72.7845 31.0029L71.2656 31.6418C71.7036 32.7035 72.859 34 74.7786 34C76.8193 34 78.5432 32.788 78.5432 29.8379V22.66H76.8938V23.3083H76.9032ZM74.8997 28.8326C73.6977 28.8326 72.6913 27.818 72.6913 26.4275C72.6913 25.0182 73.6977 23.9941 74.8997 23.9941C76.0832 23.9941 77.015 25.0276 77.015 26.4275C77.0243 27.818 76.0925 28.8326 74.8997 28.8326ZM97.6269 18.4228H93.4617V30.1668H95.2042V25.7134H97.6362C99.5651 25.7134 101.457 24.3042 101.457 22.0681C101.457 19.8321 99.5465 18.4228 97.6269 18.4228ZM97.6642 24.0787H95.1949V20.0482H97.6642C98.9687 20.0482 99.7049 21.138 99.7049 22.0587C99.7049 22.9794 98.9687 24.0787 97.6642 24.0787ZM108.417 22.3969C107.159 22.3969 105.855 22.9607 105.314 24.1914L106.861 24.8397C107.187 24.1914 107.802 23.9753 108.445 23.9753C109.349 23.9753 110.262 24.5203 110.272 25.488V25.6101C109.955 25.4316 109.284 25.1591 108.455 25.1591C106.787 25.1591 105.1 26.0799 105.1 27.7992C105.1 29.3682 106.461 30.3829 107.989 30.3829C109.154 30.3829 109.806 29.8567 110.207 29.2366H110.262V30.148H111.94V25.6477C111.949 23.5619 110.402 22.3969 108.417 22.3969ZM108.203 28.8326C107.635 28.8326 106.843 28.5414 106.843 27.8368C106.843 26.9348 107.83 26.5872 108.688 26.5872C109.452 26.5872 109.815 26.7563 110.272 26.9818C110.141 28.0622 109.209 28.8326 108.203 28.8326ZM118.062 22.6506L116.068 27.7428H116.012L113.943 22.6506H112.07L115.173 29.7722L113.403 33.7275H115.22L120 22.6506H118.062ZM102.407 30.1668H104.15V18.4228H102.407V30.1668Z" fill="white"/>
<path d="M10.4395 7.5407C10.1495 7.8507 9.97949 8.3307 9.97949 8.9407V31.0607C9.97949 31.6807 10.1495 32.1607 10.4395 32.4607L10.5095 32.5307L22.8995 20.1507V20.0007V19.8507L10.5095 7.4707L10.4395 7.5407Z" fill="url(#paint0_linear_1450_5918)"/>
<path d="M27.0294 24.2807L22.8994 20.1507V20.0007V19.8507L27.0294 15.7207L27.1194 15.7707L32.0094 18.5507C33.4094 19.3407 33.4094 20.6407 32.0094 21.4407L27.1194 24.2207L27.0294 24.2807Z" fill="url(#paint1_linear_1450_5918)"/>
<path d="M27.1195 24.23L22.8995 20L10.4395 32.46C10.8995 32.95 11.6595 33.01 12.5195 32.52L27.1195 24.23Z" fill="url(#paint2_linear_1450_5918)"/>
<path d="M27.1197 15.7805L12.5097 7.48048C11.6497 6.99048 10.8897 7.05048 10.4297 7.54048L22.8997 20.0005L27.1197 15.7805Z" fill="url(#paint3_linear_1450_5918)"/>
<path opacity="0.2" d="M27.0295 24.1309L12.5095 32.3809C11.6995 32.8409 10.9695 32.8109 10.5095 32.3909L10.4395 32.4609L10.5095 32.5309C10.9795 32.9509 11.6995 32.9809 12.5095 32.5209L27.1195 24.2209L27.0295 24.1309Z" fill="black"/>
<path opacity="0.12" d="M10.4395 32.3209C10.1495 32.0109 9.97949 31.5309 9.97949 30.9209V31.0709C9.97949 31.6909 10.1495 32.1709 10.4395 32.4709L10.5095 32.4009L10.4395 32.3209Z" fill="black"/>
<path opacity="0.12" d="M32.0095 21.3L27.0195 24.13L27.1095 24.22L31.9995 21.44C32.6995 21.04 33.0495 20.52 33.0495 20C32.9995 20.47 32.6495 20.94 32.0095 21.3Z" fill="black"/>
<path opacity="0.25" d="M12.5097 7.62043L32.0097 18.7004C32.6397 19.0604 32.9997 19.5204 33.0597 20.0004C33.0597 19.4804 32.7097 18.9504 32.0097 18.5604L12.5097 7.48043C11.1097 6.69043 9.96973 7.35043 9.96973 8.95043V9.10043C9.96973 7.49043 11.1197 6.83043 12.5097 7.62043Z" fill="white"/>
<defs>
<linearGradient id="paint0_linear_1450_5918" x1="21.7991" y1="8.7105" x2="5.01669" y2="25.4929" gradientUnits="userSpaceOnUse">
<stop stop-color="#00A0FF"/>
<stop offset="0.00657445" stop-color="#00A1FF"/>
<stop offset="0.2601" stop-color="#00BEFF"/>
<stop offset="0.5122" stop-color="#00D2FF"/>
<stop offset="0.7604" stop-color="#00DFFF"/>
<stop offset="1" stop-color="#00E3FF"/>
</linearGradient>
<linearGradient id="paint1_linear_1450_5918" x1="33.8337" y1="20.0022" x2="9.63682" y2="20.0022" gradientUnits="userSpaceOnUse">
<stop stop-color="#FFE000"/>
<stop offset="0.4087" stop-color="#FFBD00"/>
<stop offset="0.7754" stop-color="#FFA500"/>
<stop offset="1" stop-color="#FF9C00"/>
</linearGradient>
<linearGradient id="paint2_linear_1450_5918" x1="24.8264" y1="22.2962" x2="2.06805" y2="45.0544" gradientUnits="userSpaceOnUse">
<stop stop-color="#FF3A44"/>
<stop offset="1" stop-color="#C31162"/>
</linearGradient>
<linearGradient id="paint3_linear_1450_5918" x1="7.29689" y1="0.176675" x2="17.4595" y2="10.3393" gradientUnits="userSpaceOnUse">
<stop stop-color="#32A071"/>
<stop offset="0.0685" stop-color="#2DA771"/>
<stop offset="0.4762" stop-color="#15CF74"/>
<stop offset="0.8009" stop-color="#06E775"/>
<stop offset="1" stop-color="#00F076"/>
</linearGradient>
</defs>
</svg>
