<svg width="135" height="40" viewBox="0 0 135 40" fill="none" xmlns="http://www.w3.org/2000/svg">
<g clip-path="url(#clip0_1450_5918)">
<path d="M130 40H5C2.25 40 0 37.75 0 35V5C0 2.25 2.25 0 5 0H130C132.75 0 135 2.25 135 5V35C135 37.75 132.75 40 130 40Z" fill="black"/>
<path d="M130 0.8C132.32 0.8 134.2 2.68 134.2 5V35C134.2 37.32 132.32 39.2 130 39.2H5C2.68 39.2 0.8 37.32 0.8 35V5C0.8 2.68 2.68 0.8 5 0.8H130ZM130 0H5C2.25 0 0 2.25 0 5V35C0 37.75 2.25 40 5 40H130C132.75 40 135 37.75 135 35V5C135 2.25 132.75 0 130 0Z" fill="#A6A6A6"/>
<path d="M47.4196 10.2401C47.4196 11.0801 47.1696 11.7501 46.6696 12.2401C46.1096 12.8301 45.3696 13.1301 44.4696 13.1301C43.5996 13.1301 42.8696 12.8301 42.2596 12.2301C41.6496 11.6301 41.3496 10.8801 41.3496 10.0001C41.3496 9.11012 41.6496 8.37012 42.2596 7.77012C42.8696 7.17012 43.5996 6.87012 44.4696 6.87012C44.8996 6.87012 45.3096 6.95012 45.6996 7.12012C46.0896 7.29012 46.3996 7.51012 46.6396 7.79012L46.1096 8.32012C45.7096 7.85012 45.1696 7.61012 44.4696 7.61012C43.8396 7.61012 43.2896 7.83012 42.8296 8.28012C42.3696 8.72012 42.1396 9.30012 42.1396 10.0101C42.1396 10.7201 42.3696 11.3001 42.8296 11.7401C43.2896 12.1801 43.8396 12.4101 44.4696 12.4101C45.1396 12.4101 45.6996 12.1901 46.1496 11.7401C46.4396 11.4501 46.6096 11.0401 46.6496 10.5201H44.4696V9.79012H47.3796C47.3996 9.95012 47.4196 10.1001 47.4196 10.2401Z" fill="white" stroke="white" stroke-width="0.2" stroke-miterlimit="10"/>
<path d="M52.0293 7.74H49.2993V9.64H51.7593V10.36H49.2993V12.26H52.0293V13H48.5293V7H52.0293V7.74Z" fill="white" stroke="white" stroke-width="0.2" stroke-miterlimit="10"/>
<path d="M55.2801 13H54.5101V7.74H52.8301V7H56.9501V7.74H55.2701V13H55.2801Z" fill="white" stroke="white" stroke-width="0.2" stroke-miterlimit="10"/>
<path d="M59.9395 13V7H60.7095V13H59.9395Z" fill="white" stroke="white" stroke-width="0.2" stroke-miterlimit="10"/>
<path d="M64.1297 13H63.3597V7.74H61.6797V7H65.7997V7.74H64.1197V13H64.1297Z" fill="white" stroke="white" stroke-width="0.2" stroke-miterlimit="10"/>
<path d="M73.6101 12.2201C73.0201 12.8301 72.2901 13.1301 71.4101 13.1301C70.5301 13.1301 69.8001 12.8301 69.2101 12.2201C68.6201 11.6101 68.3301 10.8701 68.3301 10.0001C68.3301 9.13012 68.6201 8.38012 69.2101 7.78012C69.8001 7.17012 70.5301 6.87012 71.4101 6.87012C72.2801 6.87012 73.0101 7.17012 73.6101 7.78012C74.2001 8.39012 74.5001 9.13012 74.5001 10.0001C74.4901 10.8801 74.2001 11.6201 73.6101 12.2201ZM69.7801 11.7201C70.2201 12.1701 70.7701 12.3901 71.4101 12.3901C72.0501 12.3901 72.6001 12.1701 73.0401 11.7201C73.4801 11.2701 73.7101 10.7001 73.7101 10.0001C73.7101 9.30012 73.4901 8.73012 73.0401 8.28012C72.6001 7.83012 72.0501 7.60012 71.4101 7.60012C70.7701 7.60012 70.2201 7.82012 69.7801 8.27012C69.3401 8.73012 69.1101 9.30012 69.1101 10.0001C69.1101 10.7001 69.3401 11.2701 69.7801 11.7201Z" fill="white" stroke="white" stroke-width="0.2" stroke-miterlimit="10"/>
<path d="M75.5801 13V7H76.5201L79.4401 11.67H79.4701L79.4401 10.51V7H80.2101V13H79.4101L76.3601 8.11H76.3301L76.3601 9.27V13H75.5801Z" fill="white" stroke="white" stroke-width="0.2" stroke-miterlimit="10"/>
<path d="M66.2524 22.4157C64.0626 22.4157 62.2735 24.0975 62.2735 26.4087C62.2735 28.7105 64.0626 30.4016 66.2524 30.4016C68.4422 30.4016 70.2313 28.7105 70.2313 26.4087C70.2313 24.0975 68.4422 22.4157 66.2524 22.4157ZM66.2524 28.8326C65.0504 28.8326 64.016 27.8368 64.016 26.4087C64.016 24.9712 65.0504 23.9847 66.2524 23.9847C67.4545 23.9847 68.4888 24.9712 68.4888 26.4087C68.4888 27.8368 67.4452 28.8326 66.2524 28.8326ZM57.5678 22.4157C55.378 22.4157 53.5889 24.0975 53.5889 26.4087C53.5889 28.7105 55.378 30.4016 57.5678 30.4016C59.7576 30.4016 61.5467 28.7105 61.5467 26.4087C61.5467 24.0975 59.7576 22.4157 57.5678 22.4157ZM57.5678 28.8326C56.3658 28.8326 55.3314 27.8368 55.3314 26.4087C55.3314 24.9712 56.3658 23.9847 57.5678 23.9847C58.7699 23.9847 59.8042 24.9712 59.8042 26.4087C59.8042 27.8368 58.7699 28.8326 57.5678 28.8326ZM47.2432 23.6465V25.3376H51.2687C51.1476 26.2866 50.8307 26.9912 50.3555 27.4703C49.7685 28.0622 48.8553 28.7105 47.2525 28.7105C44.7739 28.7105 42.8357 26.6999 42.8357 24.2008C42.8357 21.7017 44.7739 19.6911 47.2525 19.6911C48.585 19.6911 49.5635 20.2173 50.281 20.9031L51.4644 19.7099C50.458 18.7422 49.1255 18 47.2432 18C43.8514 18 41 20.781 41 24.2102C41 27.6301 43.8514 30.4204 47.2432 30.4204C49.0789 30.4204 50.458 29.8191 51.5389 28.6823C52.6478 27.5643 52.9926 25.9859 52.9926 24.7176C52.9926 24.323 52.9646 23.9565 52.8994 23.6559H47.2432V23.6465ZM89.4641 24.9618C89.138 24.0693 88.1316 22.4157 86.0723 22.4157C84.0316 22.4157 82.3357 24.0317 82.3357 26.4087C82.3357 28.6447 84.013 30.4016 86.268 30.4016C88.085 30.4016 89.138 29.2836 89.5666 28.6353L88.2155 27.724C87.7682 28.3911 87.1532 28.8326 86.268 28.8326C85.3828 28.8326 84.7491 28.4193 84.3484 27.6207L89.6505 25.4128L89.4641 24.9618ZM84.0596 26.2959C84.013 24.7551 85.243 23.9659 86.1282 23.9659C86.8178 23.9659 87.4048 24.3136 87.6005 24.8115L84.0596 26.2959ZM79.7545 30.1668H81.4971V18.4228H79.7545V30.1668ZM76.9032 23.3083H76.8379C76.4466 22.8385 75.7011 22.4157 74.7506 22.4157C72.7659 22.4157 70.9488 24.1726 70.9488 26.4275C70.9488 28.6635 72.7659 30.411 74.7506 30.411C75.6918 30.411 76.4466 29.9883 76.8379 29.4997H76.8938V30.0728C76.8938 31.6042 76.0832 32.4216 74.7786 32.4216C73.7163 32.4216 73.0547 31.6512 72.7845 31.0029L71.2656 31.6418C71.7036 32.7035 72.859 34 74.7786 34C76.8193 34 78.5432 32.788 78.5432 29.8379V22.66H76.8938V23.3083H76.9032ZM74.8997 28.8326C73.6977 28.8326 72.6913 27.818 72.6913 26.4275C72.6913 25.0182 73.6977 23.9941 74.8997 23.9941C76.0832 23.9941 77.015 25.0276 77.015 26.4275C77.0243 27.818 76.0925 28.8326 74.8997 28.8326ZM97.6269 18.4228H93.4617V30.1668H95.2042V25.7134H97.6362C99.5651 25.7134 101.457 24.3042 101.457 22.0681C101.457 19.8321 99.5465 18.4228 97.6269 18.4228ZM97.6642 24.0787H95.1949V20.0482H97.6642C98.9687 20.0482 99.7049 21.138 99.7049 22.0587C99.7049 22.9794 98.9687 24.0787 97.6642 24.0787ZM108.417 22.3969C107.159 22.3969 105.855 22.9607 105.314 24.1914L106.861 24.8397C107.187 24.1914 107.802 23.9753 108.445 23.9753C109.349 23.9753 110.262 24.5203 110.272 25.488V25.6101C109.955 25.4316 109.284 25.1591 108.455 25.1591C106.787 25.1591 105.1 26.0799 105.1 27.7992C105.1 29.3682 106.461 30.3829 107.989 30.3829C109.154 30.3829 109.806 29.8567 110.207 29.2366H110.262V30.148H111.94V25.6477C111.949 23.5619 110.402 22.3969 108.417 22.3969ZM108.203 28.8326C107.635 28.8326 106.843 28.5414 106.843 27.8368C106.843 26.9348 107.83 26.5872 108.688 26.5872C109.452 26.5872 109.815 26.7563 110.272 26.9818C110.141 28.0622 109.209 28.8326 108.203 28.8326ZM118.062 22.6506L116.068 27.7428H116.012L113.943 22.6506H112.07L115.173 29.7722L113.403 33.7275H115.22L120 22.6506H118.062ZM102.407 30.1668H104.15V18.4228H102.407V30.1668Z" fill="white"/>
<path d="M10.4395 7.5407C10.1495 7.8507 9.97949 8.3307 9.97949 8.9407V31.0607C9.97949 31.6807 10.1495 32.1607 10.4395 32.4607L10.5095 32.5307L22.8995 20.1507V20.0007V19.8507L10.5095 7.4707L10.4395 7.5407Z" fill="url(#paint0_linear_1450_5918)"/>
<path d="M27.0294 24.2807L22.8994 20.1507V20.0007V19.8507L27.0294 15.7207L27.1194 15.7707L32.0094 18.5507C33.4094 19.3407 33.4094 20.6407 32.0094 21.4407L27.1194 24.2207L27.0294 24.2807Z" fill="url(#paint1_linear_1450_5918)"/>
<path d="M27.1195 24.23L22.8995 20L10.4395 32.46C10.8995 32.95 11.6595 33.01 12.5195 32.52L27.1195 24.23Z" fill="url(#paint2_linear_1450_5918)"/>
<path d="M27.1197 15.7805L12.5097 7.48048C11.6497 6.99048 10.8897 7.05048 10.4297 7.54048L22.8997 20.0005L27.1197 15.7805Z" fill="url(#paint3_linear_1450_5918)"/>
<path opacity="0.2" d="M27.0295 24.1309L12.5095 32.3809C11.6995 32.8409 10.9695 32.8109 10.5095 32.3909L10.4395 32.4609L10.5095 32.5309C10.9795 32.9509 11.6995 32.9809 12.5095 32.5209L27.1195 24.2209L27.0295 24.1309Z" fill="black"/>
<path opacity="0.12" d="M10.4395 32.3209C10.1495 32.0109 9.97949 31.5309 9.97949 30.9209V31.0709C9.97949 31.6909 10.1495 32.1709 10.4395 32.4709L10.5095 32.4009L10.4395 32.3209Z" fill="black"/>
<path opacity="0.12" d="M32.0095 21.3L27.0195 24.13L27.1095 24.22L31.9995 21.44C32.6995 21.04 33.0495 20.52 33.0495 20C32.9995 20.47 32.6495 20.94 32.0095 21.3Z" fill="black"/>
<path opacity="0.25" d="M12.5097 7.62043L32.0097 18.7004C32.6397 19.0604 32.9997 19.5204 33.0597 20.0004C33.0597 19.4804 32.7097 18.9504 32.0097 18.5604L12.5097 7.48043C11.1097 6.69043 9.96973 7.35043 9.96973 8.95043V9.10043C9.96973 7.49043 11.1197 6.83043 12.5097 7.62043Z" fill="white"/>
<g filter="url(#filter0_d_1450_5918)">
<path d="M134 33V15.4658L96.2667 1H50L134 33Z" fill="url(#paint4_linear_1450_5918)"/>
</g>
<g filter="url(#filter1_d_1450_5918)">
<path d="M86.8733 9.24577C86.4172 9.0648 86.0878 8.8394 85.885 8.56958C85.6892 8.29678 85.5957 7.99002 85.6047 7.6493C85.6156 7.30363 85.7017 6.92754 85.863 6.52104L86.7246 4.34975C86.8899 3.93333 87.0861 3.59805 87.3131 3.34389C87.5422 3.08477 87.8205 2.92554 88.1482 2.86621C88.4808 2.80885 88.8752 2.87065 89.3312 3.05163C89.7774 3.22867 90.0949 3.44073 90.2837 3.68781C90.4795 3.93189 90.5773 4.20596 90.5772 4.51C90.577 4.81405 90.5091 5.1371 90.3733 5.47916L90.1668 5.99967L88.8655 5.4833L89.1045 4.88099C89.1517 4.76201 89.1895 4.64504 89.2179 4.53008C89.2513 4.41709 89.252 4.31408 89.22 4.22108C89.1901 4.12311 89.1032 4.0456 88.9594 3.98856C88.8206 3.93348 88.7018 3.92935 88.6029 3.97617C88.5089 4.02495 88.4294 4.10242 88.3643 4.20857C88.3062 4.31173 88.2525 4.42528 88.2033 4.54921L87.0791 7.3823C87.026 7.51615 86.9867 7.64402 86.9613 7.7659C86.9428 7.8848 86.952 7.99174 86.9889 8.08671C87.0328 8.1787 87.1191 8.25026 87.248 8.30141C87.3868 8.35649 87.4997 8.36113 87.5868 8.31533C87.6758 8.26458 87.7503 8.18514 87.8104 8.07703C87.8706 7.96891 87.9242 7.85536 87.9714 7.73639L88.2222 7.10433L89.5235 7.62071L89.317 8.14122C89.1812 8.48328 89.0072 8.76998 88.7949 9.00132C88.5896 9.22967 88.329 9.373 88.0132 9.43131C87.7044 9.48663 87.3244 9.42478 86.8733 9.24577ZM91.0633 10.9084C90.6122 10.7294 90.2867 10.5085 90.0869 10.2456C89.8871 9.98268 89.7892 9.6799 89.7932 9.33721C89.7973 8.99453 89.8809 8.61746 90.0442 8.20601L90.9323 5.96779C91.0976 5.55137 91.2952 5.21955 91.5253 4.97231C91.7554 4.72508 92.0323 4.57675 92.356 4.52733C92.6817 4.47296 93.0701 4.53527 93.5212 4.71428C93.9773 4.89526 94.3052 5.11719 94.505 5.38009C94.7117 5.63999 94.814 5.9388 94.812 6.27653C94.81 6.61425 94.7263 6.99132 94.5611 7.40773L93.6729 9.64595C93.5096 10.0574 93.312 10.3892 93.0799 10.6414C92.8479 10.8936 92.5665 11.0459 92.2359 11.0983C91.9102 11.1527 91.5193 11.0894 91.0633 10.9084ZM91.438 9.96406C91.5768 10.0191 91.6922 10.0248 91.7842 9.98094C91.8762 9.93711 91.9537 9.8646 92.0168 9.76341C92.0799 9.66221 92.1341 9.55461 92.1794 9.44059L93.3301 6.54057C93.3773 6.4216 93.4117 6.30612 93.4332 6.19415C93.4566 6.07722 93.4499 5.97127 93.413 5.8763C93.3761 5.78132 93.2882 5.70629 93.1494 5.65121C93.0205 5.60007 92.9101 5.59641 92.8181 5.64024C92.7261 5.68407 92.6486 5.75658 92.5855 5.85777C92.5243 5.95401 92.4702 6.06161 92.4229 6.18059L91.2722 9.08061C91.2269 9.19462 91.1901 9.30911 91.1617 9.42408C91.1382 9.541 91.1425 9.64597 91.1744 9.73898C91.2113 9.83396 91.2992 9.90898 91.438 9.96406ZM93.7082 11.8547L96.2024 5.8729L97.6301 6.43944L96.9021 10.2044L99.0058 6.98532L100.381 7.5312L98.0954 13.5956L97.1511 13.2209L98.63 9.16865L96.3406 12.8993L95.5003 12.5658L96.3589 8.23304L94.6675 12.2354L93.7082 11.8547ZM98.9736 13.9441L101.364 7.921L102.695 8.44917L100.305 14.4723L98.9736 13.9441ZM101.203 14.8287L103.593 8.80556L104.53 9.17735L104.613 12.5672L105.764 9.66717L106.865 10.1039L104.475 16.127L103.575 15.77L103.58 12.157L102.34 15.2801L101.203 14.8287ZM106.905 17.1945C106.488 17.0293 106.193 16.8117 106.019 16.5418C105.85 16.2739 105.775 15.9631 105.795 15.6095C105.822 15.2529 105.917 14.8689 106.08 14.4574L106.883 12.4348C107.052 12.0085 107.253 11.6608 107.486 11.3918C107.719 11.1227 108 10.9561 108.33 10.8918C108.666 10.8245 109.063 10.8814 109.519 11.0623C109.965 11.2394 110.285 11.4524 110.479 11.7015C110.677 11.9525 110.779 12.231 110.784 12.537C110.789 12.843 110.721 13.172 110.582 13.524L110.428 13.9106L109.127 13.3943L109.322 12.9035C109.373 12.7746 109.41 12.6517 109.434 12.5348C109.462 12.4198 109.457 12.3173 109.418 12.2273C109.386 12.1343 109.301 12.0603 109.162 12.0052C109.018 11.9481 108.898 11.9465 108.802 12.0002C108.708 12.049 108.629 12.1265 108.564 12.2326C108.504 12.3407 108.449 12.4568 108.4 12.5807L107.293 15.3692C107.24 15.503 107.202 15.6344 107.18 15.7632C107.164 15.889 107.177 16.0028 107.217 16.1047C107.263 16.2037 107.354 16.2797 107.488 16.3328C107.626 16.3879 107.748 16.393 107.852 16.3481C107.955 16.3033 108.046 16.2273 108.123 16.1201C108.2 16.0129 108.265 15.8924 108.318 15.7586L108.598 15.0521L108.055 14.8367L108.365 14.056L110.105 14.7464L108.866 17.8695L107.988 17.5213L108.112 16.9936C107.966 17.1307 107.793 17.2258 107.594 17.2788C107.397 17.3269 107.167 17.2988 106.905 17.1945ZM113.165 19.6787C112.788 19.5292 112.5 19.3374 112.3 19.1032C112.1 18.869 111.991 18.5876 111.972 18.2588C111.956 17.9251 112.028 17.5322 112.191 17.0801L113.396 17.3606C113.299 17.6203 113.238 17.8374 113.215 18.0118C113.197 18.1881 113.211 18.3257 113.258 18.4246C113.31 18.5255 113.39 18.5976 113.499 18.6409C113.638 18.6959 113.746 18.6842 113.823 18.6058C113.905 18.5293 113.967 18.439 114.008 18.3349C114.106 18.087 114.129 17.8552 114.077 17.6395C114.027 17.4188 113.935 17.1813 113.801 16.9272L113.46 16.267C113.309 15.9832 113.202 15.6884 113.14 15.3825C113.084 15.0737 113.128 14.7383 113.272 14.3764C113.475 13.8658 113.78 13.5367 114.189 13.389C114.6 13.2363 115.065 13.2632 115.586 13.4698C115.908 13.5977 116.144 13.7545 116.294 13.9403C116.449 14.128 116.541 14.3308 116.569 14.5486C116.604 14.7634 116.6 14.9768 116.556 15.1889C116.519 15.398 116.467 15.5927 116.402 15.7732L115.2 15.46C115.266 15.2796 115.315 15.121 115.346 14.9843C115.384 14.8445 115.39 14.7291 115.363 14.6381C115.338 14.5421 115.268 14.4714 115.154 14.4262C115.03 14.377 114.918 14.3927 114.817 14.4732C114.721 14.5556 114.653 14.6489 114.612 14.753C114.523 14.9761 114.502 15.1802 114.549 15.3653C114.603 15.5473 114.687 15.7496 114.799 15.9722L115.123 16.6086C115.297 16.9359 115.418 17.2763 115.484 17.6297C115.555 17.985 115.508 18.3709 115.343 18.7873C115.231 19.0699 115.064 19.3021 114.843 19.4839C114.624 19.6608 114.368 19.769 114.077 19.8084C113.791 19.8498 113.487 19.8066 113.165 19.6787ZM117.111 21.2446C116.66 21.0655 116.334 20.8446 116.135 20.5817C115.935 20.3188 115.837 20.016 115.841 19.6733C115.845 19.3307 115.928 18.9536 116.092 18.5421L116.98 16.3039C117.145 15.8875 117.343 15.5557 117.573 15.3084C117.803 15.0612 118.08 14.9129 118.404 14.8635C118.729 14.8091 119.118 14.8714 119.569 15.0504C120.025 15.2314 120.353 15.4533 120.553 15.7162C120.759 15.9761 120.862 16.2749 120.86 16.6127C120.858 16.9504 120.774 17.3274 120.609 17.7439L119.721 19.9821C119.557 20.3935 119.36 20.7254 119.128 20.9776C118.895 21.2297 118.614 21.382 118.284 21.4345C117.958 21.4888 117.567 21.4255 117.111 21.2446ZM117.486 20.3002C117.624 20.3553 117.74 20.3609 117.832 20.3171C117.924 20.2732 118.001 20.2007 118.064 20.0995C118.128 19.9983 118.182 19.8907 118.227 19.7767L119.378 16.8767C119.425 16.7577 119.459 16.6423 119.481 16.5303C119.504 16.4133 119.497 16.3074 119.461 16.2124C119.424 16.1174 119.336 16.0424 119.197 15.9873C119.068 15.9362 118.958 15.9325 118.866 15.9764C118.774 16.0202 118.696 16.0927 118.633 16.1939C118.572 16.2901 118.518 16.3977 118.471 16.5167L117.32 19.4167C117.275 19.5307 117.238 19.6452 117.209 19.7602C117.186 19.8771 117.19 19.9821 117.222 20.0751C117.259 20.1701 117.347 20.2451 117.486 20.3002ZM121.468 22.9735C121.017 22.7945 120.691 22.5735 120.492 22.3106C120.292 22.0477 120.194 21.745 120.198 21.4023C120.202 21.0596 120.285 20.6825 120.449 20.2711L121.337 18.0328C121.502 17.6164 121.7 17.2846 121.93 17.0374C122.16 16.7901 122.437 16.6418 122.761 16.5924C123.086 16.538 123.475 16.6003 123.926 16.7793C124.382 16.9603 124.71 17.1823 124.91 17.4451C125.116 17.705 125.219 18.0039 125.217 18.3416C125.215 18.6793 125.131 19.0564 124.966 19.4728L124.078 21.711C123.914 22.1225 123.717 22.4543 123.485 22.7065C123.252 22.9587 122.971 23.111 122.641 23.1634C122.315 23.2178 121.924 23.1545 121.468 22.9735ZM121.843 22.0291C121.981 22.0842 122.097 22.0898 122.189 22.046C122.281 22.0022 122.358 21.9297 122.421 21.8285C122.485 21.7273 122.539 21.6197 122.584 21.5056L123.735 18.6056C123.782 18.4867 123.816 18.3712 123.838 18.2592C123.861 18.1423 123.854 18.0363 123.818 17.9414C123.781 17.8464 123.693 17.7714 123.554 17.7163C123.425 17.6651 123.315 17.6615 123.223 17.7053C123.131 17.7491 123.053 17.8216 122.99 17.9228C122.929 18.0191 122.875 18.1267 122.828 18.2456L121.677 21.1457C121.632 21.2597 121.595 21.3742 121.566 21.4891C121.543 21.6061 121.547 21.711 121.579 21.804C121.616 21.899 121.704 21.974 121.843 22.0291ZM124.135 23.9286L126.525 17.9055L127.462 18.2773L127.546 21.6671L128.697 18.7671L129.797 19.2038L127.407 25.2269L126.507 24.8699L126.512 21.257L125.273 24.3801L124.135 23.9286Z" fill="white"/>
</g>
</g>
<defs>
<filter id="filter0_d_1450_5918" x="14" y="-13" width="144" height="92" filterUnits="userSpaceOnUse" color-interpolation-filters="sRGB">
<feFlood flood-opacity="0" result="BackgroundImageFix"/>
<feColorMatrix in="SourceAlpha" type="matrix" values="0 0 0 0 0 0 0 0 0 0 0 0 0 0 0 0 0 0 127 0" result="hardAlpha"/>
<feOffset dx="-6" dy="16"/>
<feGaussianBlur stdDeviation="15"/>
<feComposite in2="hardAlpha" operator="out"/>
<feColorMatrix type="matrix" values="0 0 0 0 0 0 0 0 0 0 0 0 0 0 0 0 0 0 0.69 0"/>
<feBlend mode="normal" in2="BackgroundImageFix" result="effect1_dropShadow_1450_5918"/>
<feBlend mode="normal" in="SourceGraphic" in2="effect1_dropShadow_1450_5918" result="shape"/>
</filter>
<filter id="filter1_d_1450_5918" x="82.0664" y="2.33496" width="50.7627" height="28.9814" filterUnits="userSpaceOnUse" color-interpolation-filters="sRGB">
<feFlood flood-opacity="0" result="BackgroundImageFix"/>
<feColorMatrix in="SourceAlpha" type="matrix" values="0 0 0 0 0 0 0 0 0 0 0 0 0 0 0 0 0 0 127 0" result="hardAlpha"/>
<feOffset dy="3"/>
<feGaussianBlur stdDeviation="1.5"/>
<feComposite in2="hardAlpha" operator="out"/>
<feColorMatrix type="matrix" values="0 0 0 0 0 0 0 0 0 0 0 0 0 0 0 0 0 0 0.25 0"/>
<feBlend mode="normal" in2="BackgroundImageFix" result="effect1_dropShadow_1450_5918"/>
<feBlend mode="normal" in="SourceGraphic" in2="effect1_dropShadow_1450_5918" result="shape"/>
</filter>
<linearGradient id="paint0_linear_1450_5918" x1="21.7991" y1="8.7105" x2="5.01669" y2="25.4929" gradientUnits="userSpaceOnUse">
<stop stop-color="#00A0FF"/>
<stop offset="0.00657445" stop-color="#00A1FF"/>
<stop offset="0.2601" stop-color="#00BEFF"/>
<stop offset="0.5122" stop-color="#00D2FF"/>
<stop offset="0.7604" stop-color="#00DFFF"/>
<stop offset="1" stop-color="#00E3FF"/>
</linearGradient>
<linearGradient id="paint1_linear_1450_5918" x1="33.8337" y1="20.0022" x2="9.63682" y2="20.0022" gradientUnits="userSpaceOnUse">
<stop stop-color="#FFE000"/>
<stop offset="0.4087" stop-color="#FFBD00"/>
<stop offset="0.7754" stop-color="#FFA500"/>
<stop offset="1" stop-color="#FF9C00"/>
</linearGradient>
<linearGradient id="paint2_linear_1450_5918" x1="24.8264" y1="22.2962" x2="2.06805" y2="45.0544" gradientUnits="userSpaceOnUse">
<stop stop-color="#FF3A44"/>
<stop offset="1" stop-color="#C31162"/>
</linearGradient>
<linearGradient id="paint3_linear_1450_5918" x1="7.29689" y1="0.176675" x2="17.4595" y2="10.3393" gradientUnits="userSpaceOnUse">
<stop stop-color="#32A071"/>
<stop offset="0.0685" stop-color="#2DA771"/>
<stop offset="0.4762" stop-color="#15CF74"/>
<stop offset="0.8009" stop-color="#06E775"/>
<stop offset="1" stop-color="#00F076"/>
</linearGradient>
<linearGradient id="paint4_linear_1450_5918" x1="110.6" y1="23.6484" x2="118.153" y2="6.59539" gradientUnits="userSpaceOnUse">
<stop stop-color="#5F5F5F"/>
<stop offset="1" stop-color="#404040"/>
</linearGradient>
<clipPath id="clip0_1450_5918">
<rect width="135" height="40" fill="white"/>
</clipPath>
</defs>
</svg>
